<mxfile host="app.diagrams.net" modified="2024-04-10T11:51:23.190Z" agent="Mozilla/5.0 (Windows NT 10.0; Win64; x64) AppleWebKit/537.36 (KHTML, like Gecko) Chrome/123.0.0.0 Safari/537.36" etag="032I9NG22UUjqK63xwEN" version="24.2.3" type="github">
  <diagram id="C5RBs43oDa-KdzZeNtuy" name="Page-1">
    <mxGraphModel dx="1818" dy="2090" grid="1" gridSize="10" guides="1" tooltips="1" connect="1" arrows="1" fold="1" page="1" pageScale="1" pageWidth="827" pageHeight="1169" math="0" shadow="0">
      <root>
        <mxCell id="WIyWlLk6GJQsqaUBKTNV-0" />
        <mxCell id="WIyWlLk6GJQsqaUBKTNV-1" parent="WIyWlLk6GJQsqaUBKTNV-0" />
        <mxCell id="k3RtzrjtE9WO0fGIoLr3-0" value="" style="rounded=0;whiteSpace=wrap;html=1;fillColor=#f8cecc;strokeColor=#b85450;" vertex="1" parent="WIyWlLk6GJQsqaUBKTNV-1">
          <mxGeometry x="827" y="-150" width="1273" height="190" as="geometry" />
        </mxCell>
        <mxCell id="k3RtzrjtE9WO0fGIoLr3-1" value="" style="rounded=0;whiteSpace=wrap;html=1;fillColor=#d5e8d4;strokeColor=#82b366;" vertex="1" parent="WIyWlLk6GJQsqaUBKTNV-1">
          <mxGeometry x="827" y="170" width="1273" height="570" as="geometry" />
        </mxCell>
        <mxCell id="k3RtzrjtE9WO0fGIoLr3-2" value="" style="rounded=0;whiteSpace=wrap;html=1;fillColor=#f8cecc;strokeColor=#b85450;" vertex="1" parent="WIyWlLk6GJQsqaUBKTNV-1">
          <mxGeometry x="827" y="840" width="1273" height="190" as="geometry" />
        </mxCell>
        <mxCell id="k3RtzrjtE9WO0fGIoLr3-3" value="" style="rounded=0;whiteSpace=wrap;html=1;fillColor=#f8cecc;strokeColor=#b85450;" vertex="1" parent="WIyWlLk6GJQsqaUBKTNV-1">
          <mxGeometry x="240" y="360" width="330" height="190" as="geometry" />
        </mxCell>
        <mxCell id="k3RtzrjtE9WO0fGIoLr3-4" value="零件回收主单状态迁移" style="text;html=1;align=center;verticalAlign=middle;resizable=0;points=[];autosize=1;strokeColor=none;fillColor=none;fontSize=17;" vertex="1" parent="WIyWlLk6GJQsqaUBKTNV-1">
          <mxGeometry x="240" y="360" width="190" height="30" as="geometry" />
        </mxCell>
        <mxCell id="k3RtzrjtE9WO0fGIoLr3-14" style="edgeStyle=orthogonalEdgeStyle;rounded=0;orthogonalLoop=1;jettySize=auto;html=1;exitX=1;exitY=0.5;exitDx=0;exitDy=0;entryX=0;entryY=0.5;entryDx=0;entryDy=0;dashed=1;" edge="1" parent="WIyWlLk6GJQsqaUBKTNV-1" source="k3RtzrjtE9WO0fGIoLr3-5" target="k3RtzrjtE9WO0fGIoLr3-7">
          <mxGeometry relative="1" as="geometry" />
        </mxCell>
        <mxCell id="k3RtzrjtE9WO0fGIoLr3-5" value="待寄送" style="rounded=0;whiteSpace=wrap;html=1;" vertex="1" parent="WIyWlLk6GJQsqaUBKTNV-1">
          <mxGeometry x="400" y="420" width="120" height="60" as="geometry" />
        </mxCell>
        <mxCell id="k3RtzrjtE9WO0fGIoLr3-21" style="edgeStyle=orthogonalEdgeStyle;rounded=0;orthogonalLoop=1;jettySize=auto;html=1;exitX=1;exitY=0.5;exitDx=0;exitDy=0;dashed=1;" edge="1" parent="WIyWlLk6GJQsqaUBKTNV-1" source="k3RtzrjtE9WO0fGIoLr3-7" target="k3RtzrjtE9WO0fGIoLr3-8">
          <mxGeometry relative="1" as="geometry" />
        </mxCell>
        <mxCell id="k3RtzrjtE9WO0fGIoLr3-7" value="&lt;span style=&quot;font-size: 12px;&quot;&gt;待供应商判定&lt;/span&gt;" style="rounded=0;whiteSpace=wrap;html=1;" vertex="1" parent="WIyWlLk6GJQsqaUBKTNV-1">
          <mxGeometry x="930" y="420" width="120" height="60" as="geometry" />
        </mxCell>
        <mxCell id="k3RtzrjtE9WO0fGIoLr3-22" style="edgeStyle=orthogonalEdgeStyle;rounded=0;orthogonalLoop=1;jettySize=auto;html=1;exitX=1;exitY=0.5;exitDx=0;exitDy=0;" edge="1" parent="WIyWlLk6GJQsqaUBKTNV-1" source="k3RtzrjtE9WO0fGIoLr3-8" target="k3RtzrjtE9WO0fGIoLr3-18">
          <mxGeometry relative="1" as="geometry" />
        </mxCell>
        <mxCell id="k3RtzrjtE9WO0fGIoLr3-8" value="&lt;span style=&quot;font-size: 12px;&quot;&gt;待店端判定&lt;/span&gt;" style="rounded=0;whiteSpace=wrap;html=1;" vertex="1" parent="WIyWlLk6GJQsqaUBKTNV-1">
          <mxGeometry x="1210" y="420" width="120" height="60" as="geometry" />
        </mxCell>
        <mxCell id="k3RtzrjtE9WO0fGIoLr3-9" value="&lt;span style=&quot;font-size: 12px;&quot;&gt;待EDER确认&lt;/span&gt;" style="rounded=0;whiteSpace=wrap;html=1;" vertex="1" parent="WIyWlLk6GJQsqaUBKTNV-1">
          <mxGeometry x="1700" y="260" width="120" height="60" as="geometry" />
        </mxCell>
        <mxCell id="k3RtzrjtE9WO0fGIoLr3-10" value="&lt;span style=&quot;font-size: 12px;&quot;&gt;已完结&lt;/span&gt;" style="rounded=0;whiteSpace=wrap;html=1;" vertex="1" parent="WIyWlLk6GJQsqaUBKTNV-1">
          <mxGeometry x="1700" y="570" width="120" height="60" as="geometry" />
        </mxCell>
        <mxCell id="k3RtzrjtE9WO0fGIoLr3-25" style="edgeStyle=orthogonalEdgeStyle;rounded=0;orthogonalLoop=1;jettySize=auto;html=1;exitX=0.5;exitY=1;exitDx=0;exitDy=0;entryX=0.5;entryY=0;entryDx=0;entryDy=0;curved=1;dashed=1;" edge="1" parent="WIyWlLk6GJQsqaUBKTNV-1" source="k3RtzrjtE9WO0fGIoLr3-11" target="k3RtzrjtE9WO0fGIoLr3-7">
          <mxGeometry relative="1" as="geometry" />
        </mxCell>
        <mxCell id="k3RtzrjtE9WO0fGIoLr3-11" value="QA发起品保异常" style="rounded=0;whiteSpace=wrap;html=1;" vertex="1" parent="WIyWlLk6GJQsqaUBKTNV-1">
          <mxGeometry x="1400" y="-100" width="120" height="60" as="geometry" />
        </mxCell>
        <mxCell id="k3RtzrjtE9WO0fGIoLr3-12" value="外部系统MQMS" style="text;html=1;align=center;verticalAlign=middle;resizable=0;points=[];autosize=1;strokeColor=none;fillColor=none;fontSize=17;" vertex="1" parent="WIyWlLk6GJQsqaUBKTNV-1">
          <mxGeometry x="827" y="-140" width="140" height="30" as="geometry" />
        </mxCell>
        <mxCell id="k3RtzrjtE9WO0fGIoLr3-13" value="好来运物流系统" style="text;html=1;align=center;verticalAlign=middle;resizable=0;points=[];autosize=1;strokeColor=none;fillColor=none;fontSize=17;" vertex="1" parent="WIyWlLk6GJQsqaUBKTNV-1">
          <mxGeometry x="827" y="850" width="140" height="30" as="geometry" />
        </mxCell>
        <mxCell id="k3RtzrjtE9WO0fGIoLr3-16" value="零件回收异常单状态迁移" style="text;html=1;align=center;verticalAlign=middle;resizable=0;points=[];autosize=1;strokeColor=none;fillColor=none;fontSize=17;" vertex="1" parent="WIyWlLk6GJQsqaUBKTNV-1">
          <mxGeometry x="827" y="180" width="210" height="30" as="geometry" />
        </mxCell>
        <mxCell id="k3RtzrjtE9WO0fGIoLr3-19" style="edgeStyle=orthogonalEdgeStyle;rounded=0;orthogonalLoop=1;jettySize=auto;html=1;exitX=0.5;exitY=1;exitDx=0;exitDy=0;entryX=0;entryY=0.5;entryDx=0;entryDy=0;" edge="1" parent="WIyWlLk6GJQsqaUBKTNV-1" source="k3RtzrjtE9WO0fGIoLr3-18" target="k3RtzrjtE9WO0fGIoLr3-10">
          <mxGeometry relative="1" as="geometry" />
        </mxCell>
        <mxCell id="k3RtzrjtE9WO0fGIoLr3-20" style="edgeStyle=orthogonalEdgeStyle;rounded=0;orthogonalLoop=1;jettySize=auto;html=1;exitX=0.5;exitY=0;exitDx=0;exitDy=0;entryX=0;entryY=0.5;entryDx=0;entryDy=0;" edge="1" parent="WIyWlLk6GJQsqaUBKTNV-1" source="k3RtzrjtE9WO0fGIoLr3-18" target="k3RtzrjtE9WO0fGIoLr3-9">
          <mxGeometry relative="1" as="geometry" />
        </mxCell>
        <mxCell id="k3RtzrjtE9WO0fGIoLr3-18" value="店端是否申诉" style="rhombus;whiteSpace=wrap;html=1;" vertex="1" parent="WIyWlLk6GJQsqaUBKTNV-1">
          <mxGeometry x="1490" y="410" width="80" height="80" as="geometry" />
        </mxCell>
        <mxCell id="k3RtzrjtE9WO0fGIoLr3-23" value="&lt;span style=&quot;font-size: 12px;&quot;&gt;供应商判定&lt;/span&gt;" style="rounded=0;whiteSpace=wrap;html=1;" vertex="1" parent="WIyWlLk6GJQsqaUBKTNV-1">
          <mxGeometry x="990" y="905" width="120" height="60" as="geometry" />
        </mxCell>
        <mxCell id="k3RtzrjtE9WO0fGIoLr3-26" value="QA发起品保异常：&lt;br&gt;校验工单是否发起过品质异常，若发起过，不再生成品保异常" style="shape=note;whiteSpace=wrap;html=1;backgroundOutline=1;darkOpacity=0.05;size=11;fillColor=#f8cecc;strokeColor=#b85450;align=left;" vertex="1" parent="WIyWlLk6GJQsqaUBKTNV-1">
          <mxGeometry x="940" y="250" width="190" height="60" as="geometry" />
        </mxCell>
        <mxCell id="k3RtzrjtE9WO0fGIoLr3-28" value="&lt;span style=&quot;text-wrap: nowrap;&quot;&gt;定时任务创建异常单：&lt;br&gt;校验工单是否发起过超时异常，如&lt;br&gt;存在，不再生成&lt;/span&gt;" style="shape=note;html=1;backgroundOutline=1;darkOpacity=0.05;size=11;fillColor=#f8cecc;strokeColor=#b85450;align=left;whiteSpace=wrap;" vertex="1" parent="WIyWlLk6GJQsqaUBKTNV-1">
          <mxGeometry x="630" y="420" width="190" height="60" as="geometry" />
        </mxCell>
      </root>
    </mxGraphModel>
  </diagram>
</mxfile>
